<mxfile host="app.diagrams.net" agent="Mozilla/5.0 (Windows NT 10.0; Win64; x64) AppleWebKit/537.36 (KHTML, like Gecko) Chrome/127.0.0.0 Safari/537.36" version="24.7.7">
  <diagram id="R2lEEEUBdFMjLlhIrx00" name="Page-1">
    <mxGraphModel dx="2173" dy="887" grid="1" gridSize="10" guides="1" tooltips="1" connect="1" arrows="1" fold="1" page="1" pageScale="1" pageWidth="850" pageHeight="1100" math="0" shadow="0" extFonts="Permanent Marker^https://fonts.googleapis.com/css?family=Permanent+Marker">
      <root>
        <mxCell id="0" />
        <mxCell id="1" parent="0" />
        <mxCell id="1kpomNZS3KcyZYWg3BV8-3" value="" style="edgeStyle=orthogonalEdgeStyle;rounded=0;orthogonalLoop=1;jettySize=auto;html=1;" edge="1" parent="1" source="1kpomNZS3KcyZYWg3BV8-1" target="1kpomNZS3KcyZYWg3BV8-2">
          <mxGeometry relative="1" as="geometry" />
        </mxCell>
        <mxCell id="1kpomNZS3KcyZYWg3BV8-1" value="PERSON" style="rounded=0;whiteSpace=wrap;html=1;" vertex="1" parent="1">
          <mxGeometry x="360" y="210" width="120" height="60" as="geometry" />
        </mxCell>
        <mxCell id="1kpomNZS3KcyZYWg3BV8-7" style="edgeStyle=orthogonalEdgeStyle;rounded=0;orthogonalLoop=1;jettySize=auto;html=1;exitX=0.5;exitY=0;exitDx=0;exitDy=0;entryX=0.5;entryY=0;entryDx=0;entryDy=0;" edge="1" parent="1" source="1kpomNZS3KcyZYWg3BV8-2" target="1kpomNZS3KcyZYWg3BV8-5">
          <mxGeometry relative="1" as="geometry" />
        </mxCell>
        <mxCell id="1kpomNZS3KcyZYWg3BV8-2" value="" style="triangle;whiteSpace=wrap;html=1;rounded=0;rotation=90;" vertex="1" parent="1">
          <mxGeometry x="390" y="340" width="60" height="80" as="geometry" />
        </mxCell>
        <mxCell id="1kpomNZS3KcyZYWg3BV8-22" value="" style="edgeStyle=orthogonalEdgeStyle;rounded=0;orthogonalLoop=1;jettySize=auto;html=1;" edge="1" parent="1" source="1kpomNZS3KcyZYWg3BV8-4" target="1kpomNZS3KcyZYWg3BV8-21">
          <mxGeometry relative="1" as="geometry" />
        </mxCell>
        <mxCell id="1kpomNZS3KcyZYWg3BV8-34" style="edgeStyle=orthogonalEdgeStyle;rounded=0;orthogonalLoop=1;jettySize=auto;html=1;exitX=0;exitY=1;exitDx=0;exitDy=0;entryX=0.5;entryY=0;entryDx=0;entryDy=0;" edge="1" parent="1" source="1kpomNZS3KcyZYWg3BV8-4" target="1kpomNZS3KcyZYWg3BV8-30">
          <mxGeometry relative="1" as="geometry" />
        </mxCell>
        <mxCell id="1kpomNZS3KcyZYWg3BV8-38" style="edgeStyle=orthogonalEdgeStyle;rounded=0;orthogonalLoop=1;jettySize=auto;html=1;exitX=1;exitY=1;exitDx=0;exitDy=0;entryX=0.5;entryY=0;entryDx=0;entryDy=0;" edge="1" parent="1" source="1kpomNZS3KcyZYWg3BV8-4" target="1kpomNZS3KcyZYWg3BV8-17">
          <mxGeometry relative="1" as="geometry" />
        </mxCell>
        <mxCell id="1kpomNZS3KcyZYWg3BV8-39" style="edgeStyle=orthogonalEdgeStyle;rounded=0;orthogonalLoop=1;jettySize=auto;html=1;exitX=0.5;exitY=1;exitDx=0;exitDy=0;" edge="1" parent="1" source="1kpomNZS3KcyZYWg3BV8-4" target="1kpomNZS3KcyZYWg3BV8-29">
          <mxGeometry relative="1" as="geometry" />
        </mxCell>
        <mxCell id="1kpomNZS3KcyZYWg3BV8-42" style="edgeStyle=orthogonalEdgeStyle;rounded=0;orthogonalLoop=1;jettySize=auto;html=1;exitX=0;exitY=0;exitDx=0;exitDy=0;entryX=0.5;entryY=1;entryDx=0;entryDy=0;" edge="1" parent="1" source="1kpomNZS3KcyZYWg3BV8-4" target="1kpomNZS3KcyZYWg3BV8-41">
          <mxGeometry relative="1" as="geometry" />
        </mxCell>
        <mxCell id="1kpomNZS3KcyZYWg3BV8-4" value="CUSTOMER" style="rounded=0;whiteSpace=wrap;html=1;" vertex="1" parent="1">
          <mxGeometry x="250" y="410" width="120" height="60" as="geometry" />
        </mxCell>
        <mxCell id="1kpomNZS3KcyZYWg3BV8-10" value="" style="edgeStyle=orthogonalEdgeStyle;rounded=0;orthogonalLoop=1;jettySize=auto;html=1;" edge="1" parent="1" source="1kpomNZS3KcyZYWg3BV8-5" target="1kpomNZS3KcyZYWg3BV8-9">
          <mxGeometry relative="1" as="geometry" />
        </mxCell>
        <mxCell id="1kpomNZS3KcyZYWg3BV8-15" style="edgeStyle=orthogonalEdgeStyle;rounded=0;orthogonalLoop=1;jettySize=auto;html=1;exitX=1;exitY=1;exitDx=0;exitDy=0;entryX=0;entryY=0.5;entryDx=0;entryDy=0;" edge="1" parent="1" source="1kpomNZS3KcyZYWg3BV8-5" target="1kpomNZS3KcyZYWg3BV8-13">
          <mxGeometry relative="1" as="geometry" />
        </mxCell>
        <mxCell id="1kpomNZS3KcyZYWg3BV8-16" style="edgeStyle=orthogonalEdgeStyle;rounded=0;orthogonalLoop=1;jettySize=auto;html=1;exitX=1;exitY=0;exitDx=0;exitDy=0;entryX=0;entryY=0.5;entryDx=0;entryDy=0;" edge="1" parent="1" source="1kpomNZS3KcyZYWg3BV8-5" target="1kpomNZS3KcyZYWg3BV8-11">
          <mxGeometry relative="1" as="geometry" />
        </mxCell>
        <mxCell id="1kpomNZS3KcyZYWg3BV8-5" value="EMPLOYEE" style="rounded=0;whiteSpace=wrap;html=1;" vertex="1" parent="1">
          <mxGeometry x="470" y="410" width="120" height="60" as="geometry" />
        </mxCell>
        <mxCell id="1kpomNZS3KcyZYWg3BV8-44" value="" style="edgeStyle=orthogonalEdgeStyle;rounded=0;orthogonalLoop=1;jettySize=auto;html=1;" edge="1" parent="1" source="1kpomNZS3KcyZYWg3BV8-8" target="1kpomNZS3KcyZYWg3BV8-4">
          <mxGeometry relative="1" as="geometry" />
        </mxCell>
        <mxCell id="1kpomNZS3KcyZYWg3BV8-8" value="ISA" style="text;html=1;align=center;verticalAlign=middle;whiteSpace=wrap;rounded=0;" vertex="1" parent="1">
          <mxGeometry x="390" y="360" width="60" height="30" as="geometry" />
        </mxCell>
        <mxCell id="1kpomNZS3KcyZYWg3BV8-9" value="&lt;u&gt;EMPLOYEE_ID&lt;/u&gt;" style="ellipse;whiteSpace=wrap;html=1;" vertex="1" parent="1">
          <mxGeometry x="540" y="580" width="120" height="80" as="geometry" />
        </mxCell>
        <mxCell id="1kpomNZS3KcyZYWg3BV8-11" value="EMPLOYEE_JOB" style="ellipse;whiteSpace=wrap;html=1;" vertex="1" parent="1">
          <mxGeometry x="650" y="340" width="120" height="80" as="geometry" />
        </mxCell>
        <mxCell id="1kpomNZS3KcyZYWg3BV8-13" value="EMPLOYEE&lt;div&gt;SALARY&lt;/div&gt;" style="ellipse;whiteSpace=wrap;html=1;" vertex="1" parent="1">
          <mxGeometry x="630" y="470" width="120" height="80" as="geometry" />
        </mxCell>
        <mxCell id="1kpomNZS3KcyZYWg3BV8-17" value="CUSTOMER&amp;nbsp;&lt;div&gt;PHONE NUMBER&lt;/div&gt;" style="ellipse;whiteSpace=wrap;html=1;" vertex="1" parent="1">
          <mxGeometry x="400" y="580" width="120" height="80" as="geometry" />
        </mxCell>
        <mxCell id="1kpomNZS3KcyZYWg3BV8-24" value="" style="edgeStyle=orthogonalEdgeStyle;rounded=0;orthogonalLoop=1;jettySize=auto;html=1;" edge="1" parent="1" source="1kpomNZS3KcyZYWg3BV8-21" target="1kpomNZS3KcyZYWg3BV8-23">
          <mxGeometry relative="1" as="geometry" />
        </mxCell>
        <mxCell id="1kpomNZS3KcyZYWg3BV8-48" value="" style="edgeStyle=orthogonalEdgeStyle;rounded=0;orthogonalLoop=1;jettySize=auto;html=1;" edge="1" parent="1" source="1kpomNZS3KcyZYWg3BV8-21" target="1kpomNZS3KcyZYWg3BV8-47">
          <mxGeometry relative="1" as="geometry" />
        </mxCell>
        <mxCell id="1kpomNZS3KcyZYWg3BV8-55" style="edgeStyle=orthogonalEdgeStyle;rounded=0;orthogonalLoop=1;jettySize=auto;html=1;exitX=0;exitY=1;exitDx=0;exitDy=0;entryX=0.5;entryY=0;entryDx=0;entryDy=0;" edge="1" parent="1" source="1kpomNZS3KcyZYWg3BV8-21" target="1kpomNZS3KcyZYWg3BV8-51">
          <mxGeometry relative="1" as="geometry">
            <Array as="points">
              <mxPoint x="-30" y="460" />
              <mxPoint x="-30" y="580" />
              <mxPoint x="-60" y="580" />
            </Array>
          </mxGeometry>
        </mxCell>
        <mxCell id="1kpomNZS3KcyZYWg3BV8-56" style="edgeStyle=orthogonalEdgeStyle;rounded=0;orthogonalLoop=1;jettySize=auto;html=1;exitX=1;exitY=1;exitDx=0;exitDy=0;entryX=0.5;entryY=0;entryDx=0;entryDy=0;" edge="1" parent="1" source="1kpomNZS3KcyZYWg3BV8-21" target="1kpomNZS3KcyZYWg3BV8-52">
          <mxGeometry relative="1" as="geometry">
            <Array as="points">
              <mxPoint x="130" y="460" />
              <mxPoint x="130" y="580" />
              <mxPoint x="160" y="580" />
            </Array>
          </mxGeometry>
        </mxCell>
        <mxCell id="1kpomNZS3KcyZYWg3BV8-58" value="" style="edgeStyle=orthogonalEdgeStyle;rounded=0;orthogonalLoop=1;jettySize=auto;html=1;" edge="1" parent="1" source="1kpomNZS3KcyZYWg3BV8-21" target="1kpomNZS3KcyZYWg3BV8-57">
          <mxGeometry relative="1" as="geometry" />
        </mxCell>
        <mxCell id="1kpomNZS3KcyZYWg3BV8-21" value="ORDERS" style="rhombus;whiteSpace=wrap;html=1;" vertex="1" parent="1">
          <mxGeometry x="10" y="400" width="80" height="80" as="geometry" />
        </mxCell>
        <mxCell id="1kpomNZS3KcyZYWg3BV8-27" value="" style="edgeStyle=orthogonalEdgeStyle;rounded=0;orthogonalLoop=1;jettySize=auto;html=1;" edge="1" parent="1" source="1kpomNZS3KcyZYWg3BV8-23" target="1kpomNZS3KcyZYWg3BV8-26">
          <mxGeometry relative="1" as="geometry" />
        </mxCell>
        <mxCell id="1kpomNZS3KcyZYWg3BV8-46" value="" style="edgeStyle=orthogonalEdgeStyle;rounded=0;orthogonalLoop=1;jettySize=auto;html=1;" edge="1" parent="1" source="1kpomNZS3KcyZYWg3BV8-23" target="1kpomNZS3KcyZYWg3BV8-45">
          <mxGeometry relative="1" as="geometry" />
        </mxCell>
        <mxCell id="1kpomNZS3KcyZYWg3BV8-23" value="MENU_ITEM" style="whiteSpace=wrap;html=1;" vertex="1" parent="1">
          <mxGeometry x="-190" y="410" width="120" height="60" as="geometry" />
        </mxCell>
        <mxCell id="1kpomNZS3KcyZYWg3BV8-26" value="&lt;u&gt;ITEM_ID&lt;/u&gt;" style="ellipse;whiteSpace=wrap;html=1;" vertex="1" parent="1">
          <mxGeometry x="-260" y="530" width="120" height="80" as="geometry" />
        </mxCell>
        <mxCell id="1kpomNZS3KcyZYWg3BV8-29" value="&lt;u&gt;CUSTOMER_ID&lt;/u&gt;" style="ellipse;whiteSpace=wrap;html=1;" vertex="1" parent="1">
          <mxGeometry x="305" y="660" width="120" height="80" as="geometry" />
        </mxCell>
        <mxCell id="1kpomNZS3KcyZYWg3BV8-30" value="CUSTOMER&lt;div&gt;ADDRESS&lt;/div&gt;" style="ellipse;whiteSpace=wrap;html=1;" vertex="1" parent="1">
          <mxGeometry x="210" y="580" width="120" height="80" as="geometry" />
        </mxCell>
        <mxCell id="1kpomNZS3KcyZYWg3BV8-41" value="TABLE NUMBER" style="ellipse;whiteSpace=wrap;html=1;" vertex="1" parent="1">
          <mxGeometry x="140" y="280" width="120" height="80" as="geometry" />
        </mxCell>
        <mxCell id="1kpomNZS3KcyZYWg3BV8-45" value="PRICE" style="ellipse;whiteSpace=wrap;html=1;" vertex="1" parent="1">
          <mxGeometry x="-260" y="280" width="120" height="80" as="geometry" />
        </mxCell>
        <mxCell id="1kpomNZS3KcyZYWg3BV8-50" value="" style="edgeStyle=orthogonalEdgeStyle;rounded=0;orthogonalLoop=1;jettySize=auto;html=1;" edge="1" parent="1" source="1kpomNZS3KcyZYWg3BV8-47" target="1kpomNZS3KcyZYWg3BV8-49">
          <mxGeometry relative="1" as="geometry" />
        </mxCell>
        <mxCell id="1kpomNZS3KcyZYWg3BV8-47" value="BILL" style="whiteSpace=wrap;html=1;" vertex="1" parent="1">
          <mxGeometry x="-10" y="250" width="120" height="60" as="geometry" />
        </mxCell>
        <mxCell id="1kpomNZS3KcyZYWg3BV8-49" value="&lt;u&gt;BILL_NO.&lt;/u&gt;" style="ellipse;whiteSpace=wrap;html=1;" vertex="1" parent="1">
          <mxGeometry x="-10" y="120" width="120" height="80" as="geometry" />
        </mxCell>
        <mxCell id="1kpomNZS3KcyZYWg3BV8-51" value="TYPE&amp;nbsp;&lt;div&gt;OF&amp;nbsp;&lt;div&gt;ORDER&lt;/div&gt;&lt;/div&gt;" style="ellipse;whiteSpace=wrap;html=1;" vertex="1" parent="1">
          <mxGeometry x="-120" y="700" width="120" height="80" as="geometry" />
        </mxCell>
        <mxCell id="1kpomNZS3KcyZYWg3BV8-52" value="DESCRI[TION" style="ellipse;whiteSpace=wrap;html=1;" vertex="1" parent="1">
          <mxGeometry x="100" y="700" width="120" height="80" as="geometry" />
        </mxCell>
        <mxCell id="1kpomNZS3KcyZYWg3BV8-57" value="&lt;u&gt;ORDER_ID&lt;/u&gt;" style="ellipse;whiteSpace=wrap;html=1;" vertex="1" parent="1">
          <mxGeometry x="-10" y="630" width="120" height="80" as="geometry" />
        </mxCell>
      </root>
    </mxGraphModel>
  </diagram>
</mxfile>
